# xmcd CD database file
#
# Track frame offsets:
#	150
#	25620
#	47367
#	66072
#	89117
#	107535
#	130565
#	149167
#	172477
#
# Disc length: 2677 seconds
#
# Revision: 0
# Processed by: cddbd v1.5.1PL0 Copyright (c) Steve Scherf et al.
# Submitted via: CDex 1.51
#
DISCID=7d0a7309
DTITLE=AIRBLANCA - AIRBLANCA
DYEAR=1991
DGENRE=Rock
TTITLE0=CADIZ
TTITLE1=2000miles
TTITLE2=Night Fall
TTITLE3=Shade of Blue
TTITLE4=Jungle Party
TTITLE5=冬色の週末
TTITLE6=黄昏に I miss you
TTITLE7=Gypsy
TTITLE8=夜間飛行
EXTD=YEAR: 1991
EXTT0=
EXTT1=
EXTT2=
EXTT3=
EXTT4=
EXTT5=
EXTT6=
EXTT7=
EXTT8=
PLAYORDER=
